<svg xmlns="http://www.w3.org/2000/svg"  viewBox="0 0 50 50" width="50px" height="50px"><path d="M25,2C12.317,2,2,12.317,2,25s10.317,23,23,23s23-10.317,23-23S37.683,2,25,2z M13.71,14.19v-0.71	c0.01-2.31,0.97-4.25,2.29-4.6c1.73-0.46,4.05,1.6,6.38,5.63l2.17,3.75c-0.64,0.11-1.17,0.53-1.58,1.24L15.9,31.75	c-1.03,1.78-1.74,3.39-2.15,4.79v-0.06C13.68,33.24,13.61,26.75,13.71,14.19z M40.56,29c-2.76,1.68-8.35,4.99-19.28,11.18	l-0.62,0.35c-2,1.16-4.16,1.29-5.12,0.32c-1.26-1.26-0.65-4.3,1.68-8.33l2.17-3.76c0.42,0.49,1.04,0.74,1.87,0.74h14.13	c2.07,0,3.81-0.18,5.23-0.53C40.6,28.98,40.58,28.99,40.56,29z M35.39,27.97h-4.33c0.22-0.6,0.13-1.27-0.29-1.98L23.7,13.75	c-1.03-1.79-2.06-3.21-3.08-4.26c0.03,0.01,0.04,0.02,0.06,0.03c2.84,1.55,8.49,4.74,19.32,11.1l0.62,0.36	c2,1.17,3.19,2.97,2.84,4.29C42.99,26.99,40.05,27.97,35.39,27.97z"/></svg>